<?xml version="1.0" encoding="UTF-8"?>
<svg version="1.1" xmlns="http://www.w3.org/2000/svg" width="200" height="200">
<path d="M0 0 C3.49482795 2.85015095 6.76461364 5.86110762 10 9 C10.67289063 9.59941406 11.34578125 10.19882812 12.0390625 10.81640625 C29.02167541 26.47965282 38.29582827 50.57675903 39.2734375 73.3203125 C40.0315554 102.29949485 30.86525134 128.57656604 11 150 C-8.90645182 169.00036505 -34.42042495 178.75612273 -61.80078125 178.18359375 C-90.16024971 176.55612731 -114.18628038 164.04841505 -133 143 C-135.5417661 139.78238857 -137.80645942 136.46202743 -140 133 C-140.51046875 132.24589844 -141.0209375 131.49179688 -141.546875 130.71484375 C-155.05481403 109.86109252 -158.26202119 82.87195946 -153.75 58.75 C-147.26127281 31.61256621 -132.29266129 9.91750589 -108.6875 -5.1875 C-74.19342375 -25.55196051 -32.32444955 -23.66541519 0 0 Z M-81 74 C-80.01734172 78.91329138 -78.95143888 81.09368383 -76 85 C-72.25996506 87.49335663 -69.32982594 87.63175396 -65 87 C-59.83793107 85.21807585 -57.33363532 83.44484709 -54 79 C-62.91 77.35 -71.82 75.7 -81 74 Z M-16 74 C-23.59 75.65 -31.18 77.3 -39 79 C-39 79.99 -39 80.98 -39 82 C-33.221507 85.74531954 -28.95988096 88.15998016 -22 87 C-18.34012324 84.21531116 -16.1762741 81.46984157 -15 77 C-15.33 76.01 -15.66 75.02 -16 74 Z " fill="#414040" transform="translate(157,21)"/>
<path d="M0 0 C1.5045631 0.00561367 3.00913179 0.00987536 4.51370239 0.01286316 C8.42307388 0.02417294 12.33209677 0.05351559 16.24133301 0.0869751 C20.95888569 0.12345661 25.67655667 0.13690339 30.39421082 0.15433502 C37.51565185 0.18316543 44.63633206 0.24074714 51.7578125 0.29296875 C51.7578125 10.19296875 51.7578125 20.09296875 51.7578125 30.29296875 C46.941875 30.31875 42.1259375 30.34453125 37.1640625 30.37109375 C34.10151028 30.39627921 31.03905516 30.42262496 27.9765625 30.453125 C23.1223929 30.50135904 18.26844826 30.54544134 13.4140625 30.56396484 C9.49749228 30.57917979 5.58151307 30.61370966 1.66520691 30.66127777 C0.17584896 30.67604203 -1.3135934 30.68400691 -2.80302429 30.6848526 C-12.51282689 30.69590412 -19.50658533 31.0835446 -27.0546875 37.79296875 C-32.4158383 44.98343114 -33.16694465 55.65345676 -32.2421875 64.29296875 C-31.05721985 70.55768142 -29.00909959 76.83359938 -24.2421875 81.29296875 C-19.71349891 83.96325116 -16.36817654 84.67811325 -11.13525391 84.7253418 C-10.10981476 84.74062927 -10.10981476 84.74062927 -9.06365967 84.75622559 C-6.82360484 84.78621018 -4.58397863 84.79559873 -2.34375 84.8046875 C-0.78289383 84.82154506 0.77794885 84.83969675 2.33877563 84.85908508 C6.43218776 84.90647459 10.52554518 84.93635513 14.61914062 84.96252441 C18.80219318 84.99238595 22.9850575 85.03889698 27.16796875 85.08398438 C35.36450622 85.16989182 43.56102449 85.23575245 51.7578125 85.29296875 C51.7578125 95.19296875 51.7578125 105.09296875 51.7578125 115.29296875 C34.76950348 115.41329518 34.76950348 115.41329518 27.4609375 115.43945312 C22.49729649 115.45730337 17.53382337 115.47829179 12.5703125 115.51928711 C8.5632164 115.55217142 4.55630065 115.5698822 0.5490799 115.57760048 C-0.97054631 115.58309235 -2.49016399 115.59381467 -4.00971222 115.61015892 C-18.57232818 115.76039322 -30.92866828 113.50198156 -43.2421875 105.29296875 C-43.2421875 104.63296875 -43.2421875 103.97296875 -43.2421875 103.29296875 C-43.9021875 103.29296875 -44.5621875 103.29296875 -45.2421875 103.29296875 C-52.49753064 94.89392619 -56.40424417 85.12716103 -58.2421875 74.29296875 C-58.35433594 73.63296875 -58.46648438 72.97296875 -58.58203125 72.29296875 C-60.9176021 55.40007277 -60.13547674 33.0834882 -50.10009766 18.65039062 C-37.3028362 2.0575388 -19.98882145 -0.22325364 0 0 Z " fill="#F47E20" transform="translate(96.2421875,42.70703125)"/>
<path d="M0 0 C1.5045631 0.00561367 3.00913179 0.00987536 4.51370239 0.01286316 C8.42307388 0.02417294 12.33209677 0.05351559 16.24133301 0.0869751 C20.95888569 0.12345661 25.67655667 0.13690339 30.39421082 0.15433502 C37.51565185 0.18316543 44.63633206 0.24074714 51.7578125 0.29296875 C51.7578125 10.19296875 51.7578125 20.09296875 51.7578125 30.29296875 C46.941875 30.31875 42.1259375 30.34453125 37.1640625 30.37109375 C34.10151028 30.39627921 31.03905516 30.42262496 27.9765625 30.453125 C23.1223929 30.50135904 18.26844826 30.54544134 13.4140625 30.56396484 C9.49749228 30.57917979 5.58151307 30.61370966 1.66520691 30.66127777 C0.17584896 30.67604203 -1.3135934 30.68400691 -2.80302429 30.6848526 C-12.51282689 30.69590412 -19.50658533 31.0835446 -27.0546875 37.79296875 C-32.41357833 44.98040003 -33.17404569 55.6553601 -32.2421875 64.29296875 C-31.42034993 68.35020136 -30.40665542 72.32130137 -29.2421875 76.29296875 C-31.2421875 74.48046875 -31.2421875 74.48046875 -33.2421875 72.29296875 C-33.2421875 71.30296875 -33.2421875 70.31296875 -33.2421875 69.29296875 C-35.2221875 69.29296875 -37.2021875 69.29296875 -39.2421875 69.29296875 C-39.2421875 68.30296875 -39.2421875 67.31296875 -39.2421875 66.29296875 C-38.5821875 66.29296875 -37.9221875 66.29296875 -37.2421875 66.29296875 C-37.25378906 65.44992188 -37.26539062 64.606875 -37.27734375 63.73828125 C-37.28636719 62.64257812 -37.29539062 61.546875 -37.3046875 60.41796875 C-37.31628906 59.32742187 -37.32789062 58.236875 -37.33984375 57.11328125 C-37.2421875 54.29296875 -37.2421875 54.29296875 -36.2421875 52.29296875 C-35.2521875 52.29296875 -34.2621875 52.29296875 -33.2421875 52.29296875 C-33.31179687 51.58011719 -33.38140625 50.86726563 -33.453125 50.1328125 C-33.75073672 44.86791944 -33.88681514 41.25726252 -30.3671875 37.10546875 C-28.75 35.4375 -28.75 35.4375 -27.2421875 34.29296875 C-26.5821875 34.29296875 -25.9221875 34.29296875 -25.2421875 34.29296875 C-25.2421875 33.63296875 -25.2421875 32.97296875 -25.2421875 32.29296875 C-24.2521875 32.29296875 -23.2621875 32.29296875 -22.2421875 32.29296875 C-21.7471875 30.80796875 -21.7471875 30.80796875 -21.2421875 29.29296875 C-17.30620828 28.36286731 -13.65583331 28.17171895 -9.6159668 28.17944336 C-8.64926811 28.17922432 -8.64926811 28.17922432 -7.66304016 28.17900085 C-5.54746046 28.17969369 -3.43197044 28.18745644 -1.31640625 28.1953125 C0.15618339 28.19717892 1.62877365 28.19860176 3.10136414 28.19960022 C6.96633638 28.20340779 10.8312707 28.21322296 14.69622803 28.2243042 C18.64448534 28.23455625 22.59274882 28.23910596 26.54101562 28.24414062 C34.27996716 28.25484688 42.01887967 28.27242934 49.7578125 28.29296875 C49.7578125 19.71296875 49.7578125 11.13296875 49.7578125 2.29296875 C41.29057482 2.4013533 32.82341319 2.51354327 24.35631561 2.63230801 C20.42409386 2.68731425 16.49186444 2.74069667 12.55957031 2.7902832 C8.75993373 2.83825808 4.96037967 2.8906093 1.1608429 2.9459095 C-0.28388902 2.96618408 -1.72864343 2.98492018 -3.17341614 3.00204277 C-15.76950186 2.45606753 -15.76950186 2.45606753 -27.2421875 6.29296875 C-28.9128125 6.69515625 -28.9128125 6.69515625 -30.6171875 7.10546875 C-35.84936553 8.81945811 -38.24816147 11.8019297 -41.2421875 16.29296875 C-41.2421875 16.95296875 -41.2421875 17.61296875 -41.2421875 18.29296875 C-42.3559375 18.99421875 -43.4696875 19.69546875 -44.6171875 20.41796875 C-47.61035603 22.45380807 -48.82392719 23.90012645 -49.7421875 27.41796875 C-50.51555788 31.19791089 -50.51555788 31.19791089 -49.2421875 34.29296875 C-49.8609375 34.72609375 -50.4796875 35.15921875 -51.1171875 35.60546875 C-53.90740522 39.13427351 -54.20345572 42.25374689 -54.84765625 46.63671875 C-55.2421875 49.29296875 -55.2421875 49.29296875 -55.77734375 51.1875 C-57.49829538 58.98239855 -56.95064848 67.85367859 -53.9765625 75.21875 C-52.69849569 78.82860892 -52.54385477 82.49196117 -52.2421875 86.29296875 C-50.2621875 85.79796875 -50.2621875 85.79796875 -48.2421875 85.29296875 C-48.3659375 86.87078125 -48.3659375 86.87078125 -48.4921875 88.48046875 C-48.19811561 92.96506513 -47.17508115 94.02488725 -44.2421875 97.29296875 C-41.2421875 102.75725446 -41.2421875 102.75725446 -41.2421875 105.29296875 C-41.9021875 105.29296875 -42.5621875 105.29296875 -43.2421875 105.29296875 C-43.2421875 104.63296875 -43.2421875 103.97296875 -43.2421875 103.29296875 C-43.9021875 103.29296875 -44.5621875 103.29296875 -45.2421875 103.29296875 C-52.49753064 94.89392619 -56.40424417 85.12716103 -58.2421875 74.29296875 C-58.35433594 73.63296875 -58.46648438 72.97296875 -58.58203125 72.29296875 C-60.9176021 55.40007277 -60.13547674 33.0834882 -50.10009766 18.65039062 C-37.3028362 2.0575388 -19.98882145 -0.22325364 0 0 Z " fill="#CA863E" transform="translate(96.2421875,42.70703125)"/>
<path d="M0 0 C0 0.33 0 0.66 0 1 C-1.98567708 1.1953125 -3.97135417 1.390625 -5.95703125 1.5859375 C-8.29988142 1.92665391 -8.29988142 1.92665391 -11 4 C-12.670625 4.4021875 -12.670625 4.4021875 -14.375 4.8125 C-19.60717803 6.52648936 -22.00597397 9.50896095 -25 14 C-25 14.66 -25 15.32 -25 16 C-26.11375 16.70125 -27.2275 17.4025 -28.375 18.125 C-31.36816853 20.16083932 -32.58173969 21.6071577 -33.5 25.125 C-34.27337038 28.90494214 -34.27337038 28.90494214 -33 32 C-33.61875 32.433125 -34.2375 32.86625 -34.875 33.3125 C-37.66521772 36.84130476 -37.96126822 39.96077814 -38.60546875 44.34375 C-39 47 -39 47 -39.53515625 48.89453125 C-41.25610788 56.6894298 -40.70846098 65.56070984 -37.734375 72.92578125 C-36.45630819 76.53564017 -36.30166727 80.19899242 -36 84 C-34.02 83.505 -34.02 83.505 -32 83 C-32.12375 84.5778125 -32.12375 84.5778125 -32.25 86.1875 C-31.95592811 90.67209638 -30.93289365 91.7319185 -28 95 C-25 100.46428571 -25 100.46428571 -25 103 C-25.66 103 -26.32 103 -27 103 C-27 102.34 -27 101.68 -27 101 C-27.66 101 -28.32 101 -29 101 C-36.25534314 92.60095744 -40.16205667 82.83419228 -42 72 C-42.11214844 71.34 -42.22429688 70.68 -42.33984375 70 C-44.6754146 53.10710402 -43.89328924 30.79051945 -33.85791016 16.35742188 C-25.96761837 6.12691725 -13.64571014 -3.41142753 0 0 Z " fill="#DE6C32" transform="translate(80,45)"/>
<path d="M0 0 C22.44 0 44.88 0 68 0 C68 9.9 68 19.8 68 30 C51.01169098 30.12032643 51.01169098 30.12032643 43.703125 30.14648438 C38.73948399 30.16433462 33.77601087 30.18532304 28.8125 30.22631836 C24.8054039 30.25920267 20.79848815 30.27691345 16.7912674 30.28463173 C15.27164119 30.2901236 13.75202351 30.30084592 12.23247528 30.31719017 C1.06134074 30.43243647 -9.70899383 29.77598865 -19.75 24.3125 C-20.56984375 23.87550781 -21.3896875 23.43851563 -22.234375 22.98828125 C-22.81703125 22.66214844 -23.3996875 22.33601563 -24 22 C-22 21 -22 21 -18.9375 21.875 C-16 23 -16 23 -15 24 C-13.48834346 24.39148761 -11.96530368 24.73972457 -10.4375 25.0625 C-9.61121094 25.23910156 -8.78492187 25.41570312 -7.93359375 25.59765625 C-7.29550781 25.73042969 -6.65742187 25.86320312 -6 26 C-6 26.66 -6 27.32 -6 28 C1.52165427 27.88096127 9.04319879 27.75618876 16.56469727 27.62768555 C19.11610837 27.58474116 21.66754081 27.54304361 24.21899414 27.50268555 C38.16792366 27.28118716 52.08360121 27.02004362 66 26 C66.495 27.485 66.495 27.485 67 29 C67 19.76 67 10.52 67 1 C44.89 1 22.78 1 0 1 C0 0.67 0 0.34 0 0 Z " fill="#C68031" transform="translate(80,128)"/>
<path d="M0 0 C22.11 0 44.22 0 67 0 C67 9.24 67 18.48 67 28 C65.515 27.505 65.515 27.505 64 27 C64.66 27 65.32 27 66 27 C65.84402344 26.38511719 65.68804687 25.77023438 65.52734375 25.13671875 C65.33269531 24.32847656 65.13804687 23.52023438 64.9375 22.6875 C64.74027344 21.88699219 64.54304688 21.08648437 64.33984375 20.26171875 C64 18 64 18 65 15 C64.68563225 12.24146583 64.68563225 12.24146583 64.0625 9.3125 C63.86785156 8.31863281 63.67320312 7.32476562 63.47265625 6.30078125 C63.31667969 5.54152344 63.16070312 4.78226563 63 4 C62.32650009 3.98969254 61.65300018 3.97938507 60.95909119 3.96876526 C53.93463032 3.86039038 46.91028972 3.74581856 39.88598633 3.62768555 C37.26622032 3.58443584 34.64642793 3.54275391 32.02661133 3.50268555 C28.25594136 3.44474127 24.48540294 3.38111662 20.71484375 3.31640625 C18.96445045 3.29133751 18.96445045 3.29133751 17.17869568 3.26576233 C5.84970818 3.06045925 5.84970818 3.06045925 1 2 C0.67 1.34 0.34 0.68 0 0 Z " fill="#EE952B" transform="translate(80,129)"/>
<path d="M0 0 C0.99361903 3.38566486 0.76008392 5.85651344 0.265625 9.34375 C-0.76672785 19.66727847 -0.1904733 29.86906099 2 40 C2.144375 40.71414062 2.28875 41.42828125 2.4375 42.1640625 C4.30842616 50.54982081 7.2429801 57.60331122 13 64 C13 64.66 13 65.32 13 66 C13.66 66 14.32 66 15 66 C15 66.66 15 67.32 15 68 C16.33209187 68.66914383 17.66576941 69.33513088 19 70 C19.80695312 70.4021875 20.61390625 70.804375 21.4453125 71.21875 C22.32960938 71.6415625 23.21390625 72.064375 24.125 72.5 C24.99382813 72.9228125 25.86265625 73.345625 26.7578125 73.78125 C36.27703967 77.3595619 46.02925436 77.33584373 56.0703125 77.4140625 C57.60302736 77.43280868 59.13573228 77.45238456 60.66842651 77.4727478 C64.669699 77.52371119 68.67100482 77.5635265 72.67242432 77.60089111 C76.76867676 77.64115739 80.86479488 77.69214558 84.9609375 77.7421875 C92.97386599 77.83852196 100.98686191 77.92306023 109 78 C109 78.33 109 78.66 109 79 C99.39398701 79.09300734 89.78813094 79.16391997 80.1817646 79.20724869 C75.72029753 79.22805272 71.25914034 79.2562376 66.79785156 79.30175781 C62.48601139 79.34547383 58.17446777 79.36919103 53.86242294 79.37950897 C52.22389946 79.38685443 50.58539073 79.4011976 48.94699478 79.42292023 C39.9485477 79.53739463 32.12787139 79.3867134 24 75 C22.9790625 74.484375 21.958125 73.96875 20.90625 73.4375 C20.1121875 72.963125 19.318125 72.48875 18.5 72 C17.6853125 71.525625 16.870625 71.05125 16.03125 70.5625 C13.83711037 68.87470028 13.01006729 67.54712622 12 65 C11.34 65 10.68 65 10 65 C10 64.34 10 63.68 10 63 C9.01 62.67 8.02 62.34 7 62 C4.92469613 59.07920195 4 57.62453269 4 54 C3.34 54 2.68 54 2 54 C1.87882812 53.40832031 1.75765625 52.81664062 1.6328125 52.20703125 C1.46523438 51.41683594 1.29765625 50.62664062 1.125 49.8125 C0.96257813 49.03519531 0.80015625 48.25789063 0.6328125 47.45703125 C0.07711323 44.991497 0.07711323 44.991497 -1.02294922 42.796875 C-2.23072475 39.33953455 -2.25908896 36.45385277 -2.265625 32.79296875 C-2.26753845 32.10874344 -2.2694519 31.42451813 -2.27142334 30.71955872 C-2.2727794 29.27649568 -2.26912352 27.8334202 -2.26074219 26.39038086 C-2.25008353 24.20462961 -2.260631 22.01970946 -2.2734375 19.83398438 C-2.27931854 12.97757225 -2.16717357 6.57891977 0 0 Z " fill="#643E21" transform="translate(38,80)"/>
<path d="M0 0 C0.33 0 0.66 0 1 0 C1.19441368 2.2910905 1.38033135 4.58290337 1.5625 6.875 C1.66691406 8.15117188 1.77132812 9.42734375 1.87890625 10.7421875 C2 14 2 14 1 16 C0.50936604 23.63313214 0.37010835 30.75528011 3.265625 37.92578125 C4.54369181 41.53564017 4.69833273 45.19899242 5 49 C6.98 48.505 6.98 48.505 9 48 C8.9175 49.051875 8.835 50.10375 8.75 51.1875 C9.04407189 55.67209638 10.06710635 56.7319185 13 60 C16 65.46428571 16 65.46428571 16 68 C15.34 68 14.68 68 14 68 C14 67.34 14 66.68 14 66 C13.34 66 12.68 66 12 66 C4.74465686 57.60095744 0.83794333 47.83419228 -1 37 C-1.11214844 36.34 -1.22429688 35.68 -1.33984375 35 C-2.95274185 23.33410688 -2.43775271 11.49226276 0 0 Z " fill="#DC6836" transform="translate(39,80)"/>
<path d="M0 0 C0.33 0 0.66 0 1 0 C1.02505615 0.60473145 1.0501123 1.20946289 1.07592773 1.83251953 C1.19263006 4.5968562 1.31501734 7.36091366 1.4375 10.125 C1.47681641 11.07632813 1.51613281 12.02765625 1.55664062 13.0078125 C1.7341271 16.93982067 1.92329505 20.62932852 2.72265625 24.4921875 C3 27 3 27 1.94596863 28.63545227 C-0.96498907 30.67666746 -3.33031629 30.35930806 -6.8581543 30.34057617 C-7.89756668 30.34123329 -7.89756668 30.34123329 -8.95797729 30.34190369 C-11.24701168 30.33981465 -13.53531242 30.31647926 -15.82421875 30.29296875 C-17.41176452 30.28737318 -18.99931548 30.2831029 -20.58686829 30.28010559 C-24.76435663 30.26865368 -28.94153183 30.23918373 -33.11889648 30.20599365 C-37.38195561 30.17530011 -41.64506535 30.1616018 -45.90820312 30.14648438 C-54.27227908 30.11431417 -62.63610058 30.06311387 -71 30 C-67.37570554 27.58380369 -65.72861638 27.75701066 -61.41723633 27.77294922 C-60.75355545 27.77265717 -60.08987457 27.77236511 -59.40608215 27.77206421 C-57.21459839 27.77345643 -55.02345555 27.78901221 -52.83203125 27.8046875 C-51.31174404 27.80841802 -49.79145442 27.81126481 -48.27116394 27.81326294 C-44.27130486 27.82089634 -40.27159121 27.84054226 -36.27178955 27.8626709 C-32.18967659 27.88313566 -28.10754011 27.892266 -24.02539062 27.90234375 C-16.01685294 27.9237885 -8.00846132 27.9589682 0 28 C0 18.76 0 9.52 0 0 Z " fill="#5B3D1E" transform="translate(148,45)"/>
<path d="M0 0 C1.65 0 3.3 0 5 0 C5 0.66 5 1.32 5 2 C4.48050781 2.21914062 3.96101563 2.43828125 3.42578125 2.6640625 C-1.42408134 4.86936046 -5.43490385 7.15157963 -8 12 C-12.40920416 24.14309048 -11.57663634 34.80111534 -8 47 C-10 45.1875 -10 45.1875 -12 43 C-12 42.01 -12 41.02 -12 40 C-13.98 40 -15.96 40 -18 40 C-18 39.01 -18 38.02 -18 37 C-17.34 37 -16.68 37 -16 37 C-16.01160156 36.15695313 -16.02320313 35.31390625 -16.03515625 34.4453125 C-16.04417969 33.34960938 -16.05320313 32.25390625 -16.0625 31.125 C-16.07410156 30.03445312 -16.08570313 28.94390625 -16.09765625 27.8203125 C-16 25 -16 25 -15 23 C-14.01 23 -13.02 23 -12 23 C-12.06960937 22.28714844 -12.13921875 21.57429688 -12.2109375 20.83984375 C-12.50854922 15.57495069 -12.64462764 11.96429377 -9.125 7.8125 C-7.5078125 6.14453125 -7.5078125 6.14453125 -6 5 C-5.34 5 -4.68 5 -4 5 C-4 4.34 -4 3.68 -4 3 C-3.01 3 -2.02 3 -1 3 C-0.67 2.01 -0.34 1.02 0 0 Z " fill="#F27022" transform="translate(75,72)"/>
<path d="M0 0 C0.66 0 1.32 0 2 0 C2.99 2.97 3.98 5.94 5 9 C5.66 9 6.32 9 7 9 C7 9.66 7 10.32 7 11 C7.969375 11.309375 8.93875 11.61875 9.9375 11.9375 C13 13 13 13 14 14 C16.14668285 14.12396871 18.29742387 14.1780072 20.44750977 14.20532227 C21.12065216 14.21522186 21.79379456 14.22512146 22.48733521 14.23532104 C24.72198925 14.26701838 26.95666458 14.29172574 29.19140625 14.31640625 C30.73697984 14.33696869 32.28254772 14.35796496 33.82810974 14.37937927 C37.90350732 14.43467337 41.97895625 14.48405013 46.05444336 14.53222656 C50.2101704 14.58238817 54.36582252 14.63810204 58.52148438 14.69335938 C66.6809263 14.80103064 74.84043076 14.90245552 83 15 C83 15.33 83 15.66 83 16 C74.01140837 16.1161555 65.02307744 16.20484692 56.0338974 16.25906086 C51.8592415 16.28508888 47.68510133 16.32036077 43.51074219 16.37719727 C39.47769648 16.43176232 35.44514494 16.46147159 31.41175842 16.47438622 C29.87761156 16.48358248 28.34348994 16.50154075 26.80955505 16.52865028 C11.0194603 16.79646232 11.0194603 16.79646232 5 11 C2.10185673 7.43305444 0.53824849 4.57511214 0 0 Z " fill="#51371C" transform="translate(65,112)"/>
<path d="M0 0 C16.83 0 33.66 0 51 0 C51 9.24 51 18.48 51 28 C50.01 27.67 49.02 27.34 48 27 C48.66 27 49.32 27 50 27 C49.84402344 26.37351563 49.68804687 25.74703125 49.52734375 25.1015625 C49.23537109 23.87566406 49.23537109 23.87566406 48.9375 22.625 C48.64166016 21.40683594 48.64166016 21.40683594 48.33984375 20.1640625 C48 18 48 18 49 16 C49.33 11.05 49.66 6.1 50 1 C33.5 1 17 1 0 1 C0 0.67 0 0.34 0 0 Z " fill="#EA9C40" transform="translate(96,129)"/>
<path d="M0 0 C0.33 0.99 0.66 1.98 1 3 C1.66 3 2.32 3 3 3 C4.04973054 9.03805009 4.18340571 14.94154237 4.1875 21.0625 C4.19974609 22.02994141 4.21199219 22.99738281 4.22460938 23.99414062 C4.23502754 29.0677873 4.0261965 33.25085167 2 38 C1.67 38 1.34 38 1 38 C1.01160156 37.2678125 1.02320313 36.535625 1.03515625 35.78125 C1.13468348 23.83798199 0.55272866 11.92776696 0 0 Z " fill="#3F353B" transform="translate(192,79)"/>
<path d="M0 0 C0.33 0.99 0.66 1.98 1 3 C1.74765625 3.04898438 2.4953125 3.09796875 3.265625 3.1484375 C4.74289063 3.26058594 4.74289063 3.26058594 6.25 3.375 C7.22453125 3.44460937 8.1990625 3.51421875 9.203125 3.5859375 C11.89633189 3.98465249 13.66963279 4.63507063 16 6 C5.44191344 6.18451025 5.44191344 6.18451025 1 5 C2.28829126 10.03604767 4.26332381 12.45999097 8 16 C8 16.66 8 17.32 8 18 C6.35 18.33 4.7 18.66 3 19 C3.33 18.34 3.66 17.68 4 17 C3.01 16.01 2.02 15.02 1 14 C0.34 14.66 -0.32 15.32 -1 16 C-1.33 11.05 -1.66 6.1 -2 1 C-1.34 0.67 -0.68 0.34 0 0 Z " fill="#393537" transform="translate(76,91)"/>
<path d="M0 0 C11.01203902 -0.06669472 21.99476278 0.12251834 33 0.5 C34.46874213 0.5484165 35.93749214 0.59659444 37.40625 0.64453125 C40.93759455 0.76028969 44.46882353 0.87921012 48 1 C48 1.33 48 1.66 48 2 C37.35868985 2.56338111 26.72077715 3.09778159 16.0625 3.125 C14.99249756 3.13176758 14.99249756 3.13176758 13.90087891 3.13867188 C9.52065568 3.12617183 5.29809627 2.86730423 1 2 C0.67 1.34 0.34 0.68 0 0 Z " fill="#E78730" transform="translate(80,129)"/>
<path d="M0 0 C0.99361903 3.38566486 0.76008392 5.85651344 0.265625 9.34375 C-0.67894894 18.78948944 -0.25039943 28.05427902 1.5546875 37.359375 C2.16270905 40.96483609 2.14026498 44.35311046 2 48 C-1.45021487 42.82467769 -2.25451162 39.01765474 -2.265625 32.79296875 C-2.26753845 32.10874344 -2.2694519 31.42451813 -2.27142334 30.71955872 C-2.2727794 29.27649568 -2.26912352 27.8334202 -2.26074219 26.39038086 C-2.25008353 24.20462961 -2.260631 22.01970946 -2.2734375 19.83398438 C-2.27931854 12.97757225 -2.16717357 6.57891977 0 0 Z " fill="#5F392A" transform="translate(38,80)"/>
<path d="M0 0 C0.33 0 0.66 0 1 0 C1.19441368 2.2910905 1.38033135 4.58290337 1.5625 6.875 C1.66691406 8.15117188 1.77132812 9.42734375 1.87890625 10.7421875 C2 14 2 14 1 16 C0.91528636 17.81341842 0.89278917 19.62994161 0.90234375 21.4453125 C0.90556641 22.52167969 0.90878906 23.59804687 0.91210938 24.70703125 C0.92048828 25.83496094 0.92886719 26.96289062 0.9375 28.125 C0.94201172 29.26066406 0.94652344 30.39632812 0.95117188 31.56640625 C0.96298385 34.37765638 0.97945493 37.1888023 1 40 C-5.21894285 30.67158572 -2.460381 12.62643411 -0.4375 2.0625 C-0.293125 1.381875 -0.14875 0.70125 0 0 Z " fill="#C8643E" transform="translate(39,80)"/>
<path d="M0 0 C0 0.66 0 1.32 0 2 C-0.99 2.33 -1.98 2.66 -3 3 C-7.06301729 7.06301729 -8.45121035 11.61443599 -10 17 C-10.66 17 -11.32 17 -12 17 C-12 22.61 -12 28.22 -12 34 C-14.5136321 31.4863679 -14.29736484 30.60608633 -14.3125 27.125 C-14.08332292 17.41043843 -12.48685621 9.55731516 -5.62109375 2.42578125 C-3.6771136 0.71601558 -2.61353727 0 0 0 Z " fill="#663E23" transform="translate(77,75)"/>
<path d="M0 0 C1.65 0 3.3 0 5 0 C2.80231371 1.69052792 0.64129184 3.21196391 -1.75 4.625 C-9.78405337 10.05561329 -13.90347723 17.04269384 -16.9921875 26.08203125 C-17.83720346 28.52864722 -18.77755783 30.72581704 -20 33 C-20.86184548 25.41575979 -17.86713651 18.31787324 -13.6953125 12.03515625 C-12.53940537 10.62437519 -11.2732291 9.305876 -10 8 C-9.319375 7.2575 -8.63875 6.515 -7.9375 5.75 C-5.46943263 3.52077786 -3.38526708 2 0 2 C0 1.34 0 0.68 0 0 Z " fill="#633B24" transform="translate(59,47)"/>
<path d="M0 0 C7.63940384 -0.12592424 15.15756551 0.17786824 22.7734375 0.77734375 C26.53425097 1.0368672 30.23276887 1.07534462 34 1 C34 1.33 34 1.66 34 2 C23.86652302 4.74806155 13.33377159 4.83341109 3 3 C1.2578125 1.45703125 1.2578125 1.45703125 0 0 Z " fill="#322A2F" transform="translate(80,195)"/>
<path d="M0 0 C0.33 0 0.66 0 1 0 C1 21.12 1 42.24 1 64 C0.67 64 0.34 64 0 64 C0 42.88 0 21.76 0 0 Z " fill="#494043" transform="translate(0,133)"/>
<path d="M0 0 C0 0.33 0 0.66 0 1 C-2.97851562 1.29296875 -2.97851562 1.29296875 -5.95703125 1.5859375 C-8.29988142 1.92665391 -8.29988142 1.92665391 -11 4 C-12.5159375 4.3403125 -12.5159375 4.3403125 -14.0625 4.6875 C-19.42476537 6.07984787 -23.64131675 9.72002508 -28 13 C-28.66 12.67 -29.32 12.34 -30 12 C-21.80331195 4.239306 -11.88202627 -2.97050657 0 0 Z " fill="#D2773A" transform="translate(80,45)"/>
<path d="M0 0 C4.17755434 0.73107201 8.31737576 -0.03459597 12.5 -0.5625 C12.83 0.4275 13.16 1.4175 13.5 2.4375 C3.27 2.4375 -6.96 2.4375 -17.5 2.4375 C-11.99981542 -1.22928972 -6.46939865 -1.4556147 0 0 Z " fill="#F28B26" transform="translate(114.5,68.5625)"/>
<path d="M0 0 C1.65 0 3.3 0 5 0 C5 0.66 5 1.32 5 2 C4.48050781 2.21914062 3.96101563 2.43828125 3.42578125 2.6640625 C-1.40379978 4.86013816 -5.48457774 7.14066155 -8 12 C-9.25418513 15.95472893 -10.19049047 19.93270821 -11 24 C-11.33 24 -11.66 24 -12 24 C-12.91331924 13.69978858 -12.91331924 13.69978858 -10.734375 9.64453125 C-9.24167463 7.88734756 -7.8572304 6.36645967 -6 5 C-5.34 5 -4.68 5 -4 5 C-4 4.34 -4 3.68 -4 3 C-3.01 3 -2.02 3 -1 3 C-0.67 2.01 -0.34 1.02 0 0 Z " fill="#D2773B" transform="translate(75,72)"/>
<path d="M0 0 C0.66 0.33 1.32 0.66 2 1 C1.875 3.25 1.875 3.25 1 6 C-4.08108108 10 -4.08108108 10 -7 10 C-7 10.99 -7 11.98 -7 13 C-8.45792884 13.05399736 -9.91642712 13.09279177 -11.375 13.125 C-12.18710938 13.14820312 -12.99921875 13.17140625 -13.8359375 13.1953125 C-16 13 -16 13 -18 11 C-15.69 11 -13.38 11 -11 11 C-11 10.34 -11 9.68 -11 9 C-10.45730469 8.76925781 -9.91460937 8.53851563 -9.35546875 8.30078125 C-4.81386724 6.23046561 -2.11687258 4.76296329 0 0 Z " fill="#373435" transform="translate(103,98)"/>
<path d="M0 0 C-7.56759347 5.62718489 -14.61577584 7.44686782 -24 7 C-21.04802536 5.42470031 -18.14184078 4.33195245 -14.9375 3.375 C-14.08027344 3.11460937 -13.22304687 2.85421875 -12.33984375 2.5859375 C-10 2 -10 2 -7 2 C-7 1.34 -7 0.68 -7 0 C-2.25 -1.125 -2.25 -1.125 0 0 Z " fill="#373134" transform="translate(140,189)"/>
<path d="M0 0 C2 2 4 4 6 6 C6.495 6.433125 6.99 6.86625 7.5 7.3125 C9.90874553 10.02233872 12 13.30781882 12 17 C11.34 17 10.68 17 10 17 C10 16.34 10 15.68 10 15 C9.34 15 8.68 15 8 15 C6.30859375 12.98828125 6.30859375 12.98828125 4.4375 10.3125 C3.81746094 9.44238281 3.19742188 8.57226562 2.55859375 7.67578125 C1.01657102 5.028449 0.39649402 3.01444086 0 0 Z " fill="#D26F39" transform="translate(43,131)"/>
<path d="M0 0 C0.66 0 1.32 0 2 0 C2.89401475 2.24403702 3.76515289 4.49290133 4.625 6.75 C4.88023437 7.38421875 5.13546875 8.0184375 5.3984375 8.671875 C7.19059227 13.45095438 7.19059227 13.45095438 6.1484375 16.453125 C5.76945313 16.96359375 5.39046875 17.4740625 5 18 C4.81824219 17.36191406 4.63648438 16.72382812 4.44921875 16.06640625 C4.19785156 15.24011719 3.94648438 14.41382812 3.6875 13.5625 C3.44386719 12.73878906 3.20023438 11.91507813 2.94921875 11.06640625 C2.47935547 10.04353516 2.47935547 10.04353516 2 9 C1.01 8.67 0.02 8.34 -1 8 C-0.67 7.01 -0.34 6.02 0 5 C0.03874921 3.33378384 0.0450286 1.66605828 0 0 Z " fill="#393034" transform="translate(186,60)"/>
<path d="M0 0 C6.75 0.75 6.75 0.75 9 3 C11.19704511 3.67651207 11.19704511 3.67651207 13.625 4.125 C14.44226563 4.29257813 15.25953125 4.46015625 16.1015625 4.6328125 C16.72804688 4.75398437 17.35453125 4.87515625 18 5 C18 5.66 18 6.32 18 7 C18.66 7.33 19.32 7.66 20 8 C12.34167083 7.70544888 6.65738822 4.62827658 0 1 C0 0.67 0 0.34 0 0 Z " fill="#D3763A" transform="translate(56,149)"/>
<path d="M0 0 C0.99 0.66 1.98 1.32 3 2 C3 2.99 3 3.98 3 5 C2.38125 5.53625 1.7625 6.0725 1.125 6.625 C-1.90693889 10.01363759 -2.28552182 13.60031858 -3 18 C-3.33 18 -3.66 18 -4 18 C-4.53449652 10.75460274 -3.71607548 6.27087737 0 0 Z " fill="#EC6628" transform="translate(44,72)"/>
<path d="M0 0 C2 1 2 1 3.9375 2.5 C6.02300735 4.17558237 6.02300735 4.17558237 9 5 C10.02196992 5.97753644 11.01979625 6.9805881 12 8 C13.31963709 9.01800576 14.65009646 10.02248365 16 11 C11.53651151 11.41744856 9.36222084 10.32397772 5.75 7.75 C4.87859375 7.14671875 4.0071875 6.5434375 3.109375 5.921875 C0.88869981 3.89859316 0.33723985 2.93139253 0 0 Z " fill="#3B3236" transform="translate(42,177)"/>
<path d="M0 0 C0.66 0 1.32 0 2 0 C2.99 2.97 3.98 5.94 5 9 C5.66 9 6.32 9 7 9 C7 9.66 7 10.32 7 11 C8.3303125 11.433125 8.3303125 11.433125 9.6875 11.875 C12.50382424 12.83148748 15.25083156 13.86798946 18 15 C18 15.33 18 15.66 18 16 C12.55200186 15.56416015 9.23877149 14.48521211 5 11 C2.17721022 7.41429406 0.53544228 4.55125938 0 0 Z " fill="#673D1E" transform="translate(65,112)"/>
<path d="M0 0 C0.99 0.33 1.98 0.66 3 1 C3 1.66 3 2.32 3 3 C4.216875 3.12375 5.43375 3.2475 6.6875 3.375 C10.06479059 3.78891306 12.89756695 4.54573451 16 6 C16 6.33 16 6.66 16 7 C9.54487966 7.56131481 4.84560277 5.63463787 -1 3 C-0.67 2.01 -0.34 1.02 0 0 Z " fill="#383135" transform="translate(61,188)"/>
<path d="M0 0 C5.57142857 5.14285714 5.57142857 5.14285714 6 9 C6.66 9 7.32 9 8 9 C10 12 10 12 10 15 C5.38496316 11.83540331 2.41530347 8.00533102 0 3 C0 2.01 0 1.02 0 0 Z " fill="#3C3437" transform="translate(16,149)"/>
<path d="M0 0 C0.66 1.32 1.32 2.64 2 4 C2.66 3.67 3.32 3.34 4 3 C6.625 3.9375 6.625 3.9375 9 5 C8.67 5.99 8.34 6.98 8 8 C5.36 7.67 2.72 7.34 0 7 C-0.38133299 5.0085944 -0.71325582 3.00720923 -1 1 C-0.67 0.67 -0.34 0.34 0 0 Z " fill="#F06F26" transform="translate(55,142)"/>
<path d="M0 0 C0.33 0 0.66 0 1 0 C1.12117188 1.07378906 1.24234375 2.14757812 1.3671875 3.25390625 C1.53615615 4.69013975 1.70544404 6.12633572 1.875 7.5625 C1.95363281 8.26697266 2.03226562 8.97144531 2.11328125 9.69726562 C2.66633903 14.3131709 3.61195836 18.56176603 5 23 C1.26320286 19.88600239 -0.483435 16.80151403 -1 12 C-0.86391911 7.97301372 -0.48589346 3.99877187 0 0 Z " fill="#DB773B" transform="translate(62,96)"/>
<path d="M0 0 C0.33 0 0.66 0 1 0 C1.33 3.63 1.66 7.26 2 11 C1.34 11 0.68 11 0 11 C-1.62514468 12.45833358 -1.62514468 12.45833358 -3 14 C-3.99 13.34 -4.98 12.68 -6 12 C-5.01 11.67 -4.02 11.34 -3 11 C-2.67 10.34 -2.34 9.68 -2 9 C-2.66 8.67 -3.32 8.34 -4 8 C-3.2884375 7.13375 -3.2884375 7.13375 -2.5625 6.25 C-1.0515133 4.07417916 -0.45963849 2.57397552 0 0 Z " fill="#494546" transform="translate(141,98)"/>
<path d="M0 0 C0.33 0.99 0.66 1.98 1 3 C1.74765625 3.04898438 2.4953125 3.09796875 3.265625 3.1484375 C4.74289063 3.26058594 4.74289063 3.26058594 6.25 3.375 C7.22453125 3.44460937 8.1990625 3.51421875 9.203125 3.5859375 C11.89633189 3.98465249 13.66963279 4.63507063 16 6 C10.26157749 6.20413361 5.39460953 6.27141454 0 4 C-0.66 4.99 -1.32 5.98 -2 7 C-2 5.02 -2 3.04 -2 1 C-1.34 0.67 -0.68 0.34 0 0 Z " fill="#342F30" transform="translate(76,91)"/>
<path d="M0 0 C1.30211046 3.90633137 0.47812346 6.19538173 -0.4375 10.1875 C-0.72496094 11.45980469 -1.01242188 12.73210937 -1.30859375 14.04296875 C-1.53675781 15.01878906 -1.76492188 15.99460937 -2 17 C-2.66 17 -3.32 17 -4 17 C-4.22577402 11.5814234 -3.46670113 7.22512279 -2 2 C-1.34 2 -0.68 2 0 2 C0 1.34 0 0.68 0 0 Z " fill="#3B3538" transform="translate(7,71)"/>
<path d="M0 0 C0.99 0 1.98 0 3 0 C2.61479436 2.53910197 2.29902057 3.72751123 0.37109375 5.484375 C-0.26699219 5.90203125 -0.90507812 6.3196875 -1.5625 6.75 C-2.20316406 7.17796875 -2.84382812 7.6059375 -3.50390625 8.046875 C-4.24447266 8.51867187 -4.24447266 8.51867187 -5 9 C-5 5 -5 5 -3.625 3.375 C-2.820625 2.694375 -2.820625 2.694375 -2 2 C-1.34 1.34 -0.68 0.68 0 0 Z " fill="#383133" transform="translate(166,167)"/>
<path d="M0 0 C1.32 0.66 2.64 1.32 4 2 C4.75 5.125 4.75 5.125 5 8 C4.38125 8.144375 3.7625 8.28875 3.125 8.4375 C0.96741678 8.93152225 0.96741678 8.93152225 -1 10 C-0.67 6.7 -0.34 3.4 0 0 Z " fill="#3D3638" transform="translate(178,46)"/>
<path d="M0 0 C0.33 0 0.66 0 1 0 C1.2276125 3.20726702 1.42860225 6.4156823 1.625 9.625 C1.68945312 10.52863281 1.75390625 11.43226562 1.8203125 12.36328125 C2.11417457 17.39566926 2.05774314 21.27190317 0 26 C-0.33 26 -0.66 26 -1 26 C-0.67 17.42 -0.34 8.84 0 0 Z " fill="#2B1E25" transform="translate(194,91)"/>
<path d="M0 0 C0.66 0 1.32 0 2 0 C0.68818459 3.93544623 -1.95958727 5.74938163 -5.1484375 8.14453125 C-7.49514852 9.22877115 -8.61653863 8.85573613 -11 8 C-10.28972656 7.50628906 -9.57945312 7.01257813 -8.84765625 6.50390625 C-7.92855469 5.86324219 -7.00945312 5.22257813 -6.0625 4.5625 C-5.14597656 3.92441406 -4.22945312 3.28632813 -3.28515625 2.62890625 C-1.13879294 1.1939118 -1.13879294 1.1939118 0 0 Z " fill="#3A3336" transform="translate(157,176)"/>
<path d="M0 0 C0.33 0 0.66 0 1 0 C1 1.65 1 3.3 1 5 C2.32 4.67 3.64 4.34 5 4 C5 6.97 5 9.94 5 13 C0.03508772 8.03508772 0.03508772 8.03508772 -0.125 3.3125 C-0.08375 2.219375 -0.0425 1.12625 0 0 Z " fill="#EE6727" transform="translate(43,124)"/>
<path d="M0 0 C-0.33 0.99 -0.66 1.98 -1 3 C-4.96 3 -8.92 3 -13 3 C-13.33 2.34 -13.66 1.68 -14 1 C-12.41693353 0.83081732 -10.83353281 0.66476064 -9.25 0.5 C-8.36828125 0.4071875 -7.4865625 0.314375 -6.578125 0.21875 C-4 0 -4 0 0 0 Z " fill="#3E3839" transform="translate(139,107)"/>
<path d="M0 0 C0.66 0.33 1.32 0.66 2 1 C1.42415568 3.38564077 0.77772405 5.66682784 0 8 C-1.98 7.34 -3.96 6.68 -6 6 C-4 4 -2 2 0 0 Z " fill="#F0711F" transform="translate(63,49)"/>
<path d="M0 0 C0.33 0 0.66 0 1 0 C1.19294408 4.82360189 0.75747614 8.49646738 -1 13 C-1.66 13 -2.32 13 -3 13 C-3.33 13.66 -3.66 14.32 -4 15 C-4 13.35 -4 11.7 -4 10 C-3.34 10 -2.68 10 -2 10 C-1.855625 8.906875 -1.71125 7.81375 -1.5625 6.6875 C-1 3 -1 3 0 0 Z " fill="#382F34" transform="translate(191,123)"/>
<path d="M0 0 C0 0.99 0 1.98 0 3 C-3.07460137 5.89890986 -6.01457486 7.63356852 -10 9 C-9.0919838 7.86800647 -8.17316174 6.74467637 -7.25 5.625 C-6.73953125 4.99851562 -6.2290625 4.37203125 -5.703125 3.7265625 C-3.91800519 1.91687682 -2.32050356 0.99882545 0 0 Z " fill="#C8703F" transform="translate(60,49)"/>
<path d="M0 0 C0.98484375 0.01804688 1.9696875 0.03609375 2.984375 0.0546875 C4.10585937 0.08949219 4.10585937 0.08949219 5.25 0.125 C5.25 0.455 5.25 0.785 5.25 1.125 C-2.67 2.61 -2.67 2.61 -10.75 4.125 C-8.55352929 -0.26794142 -4.45698365 -0.10611866 0 0 Z " fill="#5D3A1F" transform="translate(74.75,42.875)"/>
<path d="M0 0 C0.125 2.875 0.125 2.875 0 6 C-0.66 6.66 -1.32 7.32 -2 8 C-2 5.69 -2 3.38 -2 1 C-3.32 0.67 -4.64 0.34 -6 0 C-3.50907189 -1.24546405 -2.58919267 -0.7767578 0 0 Z " fill="#372F32" transform="translate(144,94)"/>
<path d="M0 0 C0.99 0.33 1.98 0.66 3 1 C2.67 3.64 2.34 6.28 2 9 C1.34 9 0.68 9 0 9 C-1.125 2.25 -1.125 2.25 0 0 Z " fill="#E6722D" transform="translate(60,95)"/>
<path d="M0 0 C1.32 1.32 2.64 2.64 4 4 C2.125 5.0625 2.125 5.0625 0 6 C-2 5 -2 5 -3 2 C-2.01 2 -1.02 2 0 2 C0 1.34 0 0.68 0 0 Z " fill="#4A4546" transform="translate(137,91)"/>
<path d="M0 0 C2.46800047 1.15173355 4.04783565 2.04783565 6 4 C5.625 6.125 5.625 6.125 5 8 C0 2.25 0 2.25 0 0 Z " fill="#3E383A" transform="translate(169,34)"/>
<path d="M0 0 C1.32 0 2.64 0 4 0 C5.75 2 5.75 2 7 4 C5.35 4.33 3.7 4.66 2 5 C2 4.34 2 3.68 2 3 C1.01 2.67 0.02 2.34 -1 2 C-0.67 1.34 -0.34 0.68 0 0 Z " fill="#3C3637" transform="translate(137,11)"/>
<path d="M0 0 C0.66 0 1.32 0 2 0 C1.38461538 5.53846154 1.38461538 5.53846154 -0.5625 7.875 C-1.036875 8.24625 -1.51125 8.6175 -2 9 C-2 5.61976483 -1.12544378 3.16531063 0 0 Z " fill="#3A3136" transform="translate(185,139)"/>
<path d="M0 0 C0.33 0.99 0.66 1.98 1 3 C1.66 3 2.32 3 3 3 C3.93065133 5.60582371 4.14917407 6.64198224 3.0625 9.25 C2.711875 9.8275 2.36125 10.405 2 11 C0.80712589 7.12315913 0 4.08378077 0 0 Z " fill="#4D4549" transform="translate(4,120)"/>
<path d="M0 0 C0.33 0 0.66 0 1 0 C1 2.64 1 5.28 1 8 C0.01 8 -0.98 8 -2 8 C-1.125 1.125 -1.125 1.125 0 0 Z " fill="#543F34" transform="translate(66,104)"/>
<path d="M0 0 C1.65 0 3.3 0 5 0 C5.33 1.32 5.66 2.64 6 4 C5.01 4.495 5.01 4.495 4 5 C3.67 4.34 3.34 3.68 3 3 C1.68 3 0.36 3 -1 3 C-0.67 2.01 -0.34 1.02 0 0 Z " fill="#3E373A" transform="translate(129,8)"/>
<path d="M0 0 C3 1 3 1 5 2 C5 2.66 5 3.32 5 4 C5.66 4 6.32 4 7 4 C6.67 4.66 6.34 5.32 6 6 C1.125 3.375 1.125 3.375 0 0 Z " fill="#372F32" transform="translate(31,169)"/>
<path d="M0 0 C0.33 0 0.66 0 1 0 C1 2.31 1 4.62 1 7 C0.67 7 0.34 7 0 7 C0 4.69 0 2.38 0 0 Z " fill="#4F183C" transform="translate(199,183)"/>
</svg>
